<?xml version="1.0" encoding="utf-8"?>
<!-- Generator: Adobe Illustrator 18.0.0, SVG Export Plug-In . SVG Version: 6.00 Build 0)  -->
<!DOCTYPE svg PUBLIC "-//W3C//DTD SVG 1.1//EN" "http://www.w3.org/Graphics/SVG/1.1/DTD/svg11.dtd">
<svg version="1.1" id="Layer_1" xmlns="http://www.w3.org/2000/svg" xmlns:xlink="http://www.w3.org/1999/xlink" x="0px" y="0px"
	 viewBox="0 0 512 512" enable-background="new 0 0 512 512" xml:space="preserve">
<path id="smiley-2-icon" fill="#FFFFFF" d="M256,90c91.7,0,166,74.2,166,166c0,91.7-74.2,166-166,166c-91.7,0-166-74.2-166-166
	C90,164.3,164.2,90,256,90 M256,50C142.2,50,50,142.2,50,256s92.2,206,206,206s206-92.2,206-206S369.8,50,256,50z M199.7,181.5
	c-17.1,0-31,13.9-31,31s13.9,31,31,31c17.1,0,31-13.9,31-31S216.8,181.5,199.7,181.5z M316.3,181.5c-17.1,0-31,13.9-31,31
	s13.9,31,31,31s31-13.9,31-31S333.5,181.5,316.3,181.5z M356.3,284.3c-27,21.3-56.7,34.5-98.3,34.5s-71.3-13.1-98.3-34.5l-8.8,8.8
	C171,323.8,208,356.8,258,356.8s87-33,107.1-63.7L356.3,284.3z"/>
</svg>
