<?xml version="1.0" encoding="utf-8"?>
<!-- Generator: Adobe Illustrator 18.0.0, SVG Export Plug-In . SVG Version: 6.00 Build 0)  -->
<!DOCTYPE svg PUBLIC "-//W3C//DTD SVG 1.1//EN" "http://www.w3.org/Graphics/SVG/1.1/DTD/svg11.dtd">
<svg version="1.1" id="Layer_1" xmlns="http://www.w3.org/2000/svg" xmlns:xlink="http://www.w3.org/1999/xlink" x="0px" y="0px"
	 viewBox="0 0 512 512" enable-background="new 0 0 512 512" xml:space="preserve">
<path id="smiley-happy-icon" fill="#FFFFFF" d="M356.3,284.3c-27,21.3-56.7,34.5-98.3,34.5s-71.3-13.1-98.3-34.5l-8.8,8.8
	C171,323.8,208,356.8,258,356.8s87-33,107.1-63.7L356.3,284.3z M256,50C142.2,50,50,142.2,50,256s92.2,206,206,206s206-92.2,206-206
	S369.8,50,256,50z M256,422c-91.7,0-166-74.2-166-166c0-91.7,74.2-166,166-166c91.7,0,166,74.2,166,166C422,347.7,347.8,422,256,422
	z M366.8,222.1c-3.4,2.3-14.6,9.8-14.6,9.8s-9.7-18.3-33.7-18.3c-23.3,0-33.7,18.3-33.7,18.3s-11.2-7.4-14.6-9.8
	c5.5-14.4,23.3-38.7,48.3-38.7S361.4,207.7,366.8,222.1z M248,222.1c-3.4,2.3-14.6,9.8-14.6,9.8s-9.7-18.3-33.7-18.3
	c-23.3,0-33.7,18.3-33.7,18.3s-11.2-7.4-14.6-9.8c5.4-14.4,23.3-38.7,48.3-38.7S242.6,207.7,248,222.1z"/>
</svg>
