<?xml version="1.0" encoding="utf-8"?>
<!-- Generator: Adobe Illustrator 18.0.0, SVG Export Plug-In . SVG Version: 6.00 Build 0)  -->
<!DOCTYPE svg PUBLIC "-//W3C//DTD SVG 1.1//EN" "http://www.w3.org/Graphics/SVG/1.1/DTD/svg11.dtd">
<svg version="1.1" id="Layer_1" xmlns="http://www.w3.org/2000/svg" xmlns:xlink="http://www.w3.org/1999/xlink" x="0px" y="0px"
	 viewBox="0 0 686.6 194.9" enable-background="new 0 0 686.6 194.9" xml:space="preserve">
<g>
	<path fill="#FFA733" d="M427.9,194.3h-12v-59.4h12V194.3z"/>
	<path fill="#FFA733" d="M441.9,145.8c-1.4-1.4-2-3-2-5c0-2,0.7-3.6,2-5s3-2,5-2c2,0,3.6,0.7,5,2s2,3,2,5c0,2-0.7,3.6-2,5s-3,2-5,2
		C444.9,147.8,443.2,147.1,441.9,145.8z M452.9,194.3h-12v-43h12V194.3z"/>
	<path fill="#FFA733" d="M477.8,170.3v24h-12v-43h12v4.8c3.6-3.7,7.7-5.5,12.2-5.5s8.3,1.6,11.4,4.8c3.1,3.2,4.6,7.5,4.6,12.8v26.2
		h-12V170c0-6.6-2.4-9.9-7.3-9.9c-2.4,0-4.5,0.9-6.3,2.6C478.7,164.4,477.8,166.9,477.8,170.3z"/>
	<path fill="#FFA733" d="M530.6,194.3h-12v-59.4h12v30.5l13.4-14.2H559l-16.4,17.4l17,25.7h-14.2l-11-16.5l-3.9,4.1V194.3z"/>
	<path fill="#FFA733" d="M599.3,180.9c0,4.2-1.6,7.6-4.7,10.2c-3.1,2.6-7.1,3.8-11.9,3.8c-3.2,0-6.5-0.6-10-1.7
		c-3.5-1.1-6.6-2.8-9.4-5.1l5.3-7.5c4.5,3.5,9.3,5.2,14.3,5.2c1.5,0,2.8-0.3,3.7-0.9c0.9-0.6,1.4-1.4,1.4-2.4c0-1-0.6-1.9-1.9-2.8
		c-1.3-0.9-3.1-1.7-5.4-2.4c-2.4-0.7-4.2-1.4-5.4-1.9c-1.3-0.5-2.7-1.3-4.3-2.3c-3.3-2-4.9-5-4.9-9c0-4,1.6-7.2,4.8-9.7
		c3.2-2.5,7.3-3.8,12.4-3.8c5.1,0,10.1,1.7,15.2,5.1l-4.5,8c-3.7-2.6-7.5-3.8-11.2-3.8c-3.7,0-5.6,1-5.6,3c0,1.1,0.6,2,1.8,2.6
		c1.2,0.6,3.1,1.4,5.8,2.2c2.7,0.9,4.7,1.5,5.8,2c1.1,0.5,2.5,1.2,4.1,2.1C597.8,173.6,599.3,176.6,599.3,180.9z"/>
</g>
<g>
	<path fill="#EBEBEB" d="M211.5,82.2c0,25.3-14.9,41.1-38.9,41.1c-24.2,0-39-15.8-39-41.1c0-25,14.9-41,39-41
		C196.7,41.2,211.5,57.2,211.5,82.2z M158.4,82.2c0,11.7,5.4,18.7,14.2,18.7c8.6,0,14.1-7,14.1-18.7c0-11.5-5.4-18.4-14.1-18.4
		C163.9,63.8,158.4,70.7,158.4,82.2z"/>
	<path fill="#EBEBEB" d="M296.7,119.5c0,1.3-0.8,2.1-2.1,2.1h-11.2c-1.1,0-1.9-0.5-2.4-1.4l-2.6-3.8c-1-1.4-2.1-1.9-4,0
		c-5.8,5.1-12.8,7-20.3,7c-21.4,0-34.6-15.8-34.6-41.1c0-25.1,14.1-41,37.3-41c4,0,7.5,0.5,10.4,1.9l4.2,1.8V7.2
		c0-1.3,0.8-2.1,2.1-2.1h21.1c1.3,0,2.1,0.8,2.1,2.1V119.5z M268.5,65.7c-2.7-1.1-6.6-1.9-9.9-1.9c-9,0-14.2,6.9-14.2,18.4
		c0.2,11.5,5.4,18.7,14.6,18.7c8.2,0,12.8-6.4,12.8-15.2V67.2L268.5,65.7z"/>
	<path fill="#EBEBEB" d="M329,47.8c1.6,2.4,2.6,2.2,5,0.2c6.4-5.4,13.8-6.7,18.6-6.7c18.9,0,30.4,10.9,30.4,29.6v48.6
		c0,1.3-0.8,2.1-2.1,2.1h-21.3c-1.3,0-2.1-0.8-2.1-2.1V74c0-6.6-3.4-10.2-9-10.2c-7.7,0-12,5.6-12,16.3v39.4c0,1.3-0.8,2.1-2.1,2.1
		h-21.3c-1.3,0-2.1-0.8-2.1-2.1V45.1c0-1.3,0.8-2.1,2.1-2.1h11.4c1.1,0,1.9,0.5,2.4,1.4L329,47.8z"/>
	<path fill="#EBEBEB" d="M428,119.5c0,1.3-0.8,2.1-2.1,2.1h-21.1c-1.3,0-2.1-0.8-2.1-2.1V65.2h-8.3c-1.3,0-2.1-0.8-2.1-2.1V45.1
		c0-1.3,0.8-2.1,2.1-2.1h31.5c1.3,0,2.1,0.8,2.1,2.1V119.5z M427.5,18c0,9.1-5.1,14.7-14.2,14.7c-9,0-14.2-5.6-14.2-14.7
		c0-9.3,5.3-14.6,14.2-14.6C422.4,3.5,427.5,8.8,427.5,18z"/>
	<path fill="#EBEBEB" d="M518.6,119.2c0.8,1.4,0.2,2.4-1.4,2.4h-22.9c-1.3,0-1.9-0.5-2.6-1.4l-8.6-17.1c-3.2-5.9-6.6-10.1-13.9-10.1
		h-1.3v26.6c0,1.3-0.8,2.1-2.1,2.1h-21.3c-1.3,0-2.1-0.8-2.1-2.1V7.2c0-1.3,0.8-2.1,2.1-2.1h21.3c1.3,0,2.1,0.8,2.1,2.1v63.5h1.4
		c6.9,0,9.8-5.3,12.8-11l7.8-15.2c0.6-1,1.3-1.4,2.6-1.4h22.9c1.6,0,2.2,1,1.4,2.4l-12.8,25c-2.9,5.4-6.7,8.5-11.7,10.4
		c-0.5,0.2-0.6,1,0,1.3c5,2.2,10.1,5.6,12.6,10.7L518.6,119.2z"/>
	<path fill="#EBEBEB" d="M557,108.4c0,9.3-5.4,14.9-14.7,14.9c-9.1,0-14.6-5.6-14.6-14.9c0-9.4,5.4-14.9,14.6-14.9
		C551.5,93.6,557,99,557,108.4z"/>
	<path fill="#EBEBEB" d="M597.5,119.5c0,1.3-0.8,2.1-2.1,2.1h-21.1c-1.3,0-2.1-0.8-2.1-2.1V65.2h-8.3c-1.3,0-2.1-0.8-2.1-2.1V45.1
		c0-1.3,0.8-2.1,2.1-2.1h31.5c1.3,0,2.1,0.8,2.1,2.1V119.5z M597,18c0,9.1-5.1,14.7-14.2,14.7c-9,0-14.2-5.6-14.2-14.7
		c0-9.3,5.3-14.6,14.2-14.6C591.9,3.5,597,8.8,597,18z"/>
	<path fill="#EBEBEB" d="M686.6,82.2c0,25.3-14.9,41.1-38.9,41.1c-24.2,0-39-15.8-39-41.1c0-25,14.9-41,39-41
		C671.7,41.2,686.6,57.2,686.6,82.2z M633.5,82.2c0,11.7,5.4,18.7,14.2,18.7c8.6,0,14.1-7,14.1-18.7c0-11.5-5.4-18.4-14.1-18.4
		C638.9,63.8,633.5,70.7,633.5,82.2z"/>
</g>
<path fill="#EBEBEB" d="M96,47.5c-12.6,40.3-14.5,48.4-16,48.4l0,0c0,0,0,0,0,0c0,0,0,0,0,0c0,0,0,0,0,0c0,0,0,0,0,0
	c-1.5,0-3.4-8.1-16-48.4C49.4,0.4,0.2,0.1,0.2,0.1s30.4,17.7,48.4,78.5c5.3,18,31.3,39.4,31.5,39.6v0c0,0,0,0,0,0c0,0,0,0,0,0
	s0,0,0,0c0.2-0.2,26.2-21.6,31.5-39.6C129.6,17.8,160,0.1,160,0.1S110.7,0.4,96,47.5z"/>
<path fill="#BEBEBE" d="M52.9,59.1l9.5,45.7l17.7,13.3l14.1-9.9l13.1-49.1c0,0-17.2,53.9-27.2,53.9C70.2,113,52.9,59.1,52.9,59.1z"
	/>
<g>
	<path fill="#BEBEBE" d="M0.2,0.1c0,0,16.6,14.9,36.6,64.6c16.9,41.9,43.3,53.5,43.3,53.5s-8.8-8.2-25.2-54C38,17.3,0.2,0.1,0.2,0.1
		z"/>
	<path fill="#BEBEBE" d="M160,0.1c0,0-16.6,14.9-36.6,64.6c-16.9,41.9-43.3,53.5-43.3,53.5s8.8-8.2,25.2-54
		C122.1,17.3,160,0.1,160,0.1z"/>
</g>
</svg>
